<?xml version="1.0"?>
<svg width="640" height="480" xmlns="http://www.w3.org/2000/svg" xmlns:svg="http://www.w3.org/2000/svg" xmlns:xlink="http://www.w3.org/1999/xlink">
 <!-- Created with SVG-edit - https://github.com/SVG-Edit/svgedit-->
 <defs>
  <symbol height="24" id="svg_3" width="24" xmlns="http://www.w3.org/2000/svg"/>
 </defs>
 <g class="layer">
  <title>Layer 1</title>
  <use id="svg_4" transform="matrix(6.66667 0 0 6.66667 0 0)" x="37.35" xlink:href="#svg_3" y="21.45"/>
  <path d="m414.06,226.83c0,53.17 -48.39,96.28 -108.08,96.28c-59.69,0 -108.08,-43.11 -108.08,-96.28c0,-53.17 48.39,-96.28 108.08,-96.28c59.69,0 108.08,43.11 108.08,96.28zm-8.77,137.56c-5.05,6 -61.39,-53.94 -68.81,-50.99c-7.42,2.95 -18.62,98.71 -26.47,99.8c-7.84,1.08 -21.33,-97.09 -28.97,-99.44c-7.64,-2.34 -51.91,56.75 -58.54,52.31c-6.63,-4.44 15.75,-76.58 12.06,-84.13c-3.69,-7.55 -88.07,-11.09 -89.81,-19.51c-1.74,-8.42 76.48,-30.51 77.12,-38.85c0.65,-8.34 -52.51,-55.46 -49.47,-62.77c3.04,-7.31 74.23,23.99 79.04,17.58c4.81,-6.41 -9.38,-87.1 -2.08,-89.52c7.3,-2.42 51.14,54.24 58.93,53.97c7.79,-0.27 31.24,-71.27 39.2,-69.61c7.96,1.66 3.99,75.32 10.15,80.23c6.16,4.92 67.09,-18.44 71.61,-11.75c4.52,6.68 -34.93,71.73 -32.56,79.44c2.38,7.71 74.66,15.07 73.67,23.04c-0.99,7.97 -90.38,11.37 -94.11,19.09c-3.73,7.72 34.06,95.1 29.01,101.1z" fill="#ffff00" id="svg_8" stroke="#000000"/>
 </g>
</svg>